<?xml version="1.0" standalone="no"?><!DOCTYPE svg PUBLIC "-//W3C//DTD SVG 1.1//EN" "http://www.w3.org/Graphics/SVG/1.1/DTD/svg11.dtd"><svg viewBox="0 0 24 24" preserveAspectRatio="xMidYMid meet" focusable="false" class="style-scope yt-icon" style="border-bottom-color:rgb(136, 136, 136);border-left-color:rgb(136, 136, 136);border-right-color:rgb(136, 136, 136);border-top-color:rgb(136, 136, 136);color:rgb(136, 136, 136);cursor:pointer;display:block;height:24px;min-height:auto;min-width:auto;outline-color:rgb(136, 136, 136);pointer-events:none;text-decoration:none solid rgb(136, 136, 136);text-decoration-color:rgb(136, 136, 136);width:24px;column-rule-color:rgb(136, 136, 136);perspective-origin:12px 12px;-webkit-text-emphasis-color:rgb(136, 136, 136);-webkit-text-fill-color:rgb(136, 136, 136);-webkit-text-stroke-color:rgb(136, 136, 136);transform-origin:12px 12px;fill:rgb(136, 136, 136);caret-color:rgb(136, 136, 136);" version="1.1" xmlns="http://www.w3.org/2000/svg" xmlns:xlink="http://www.w3.org/1999/xlink"><g class="style-scope yt-icon" style="border-bottom-color:rgb(136, 136, 136);border-left-color:rgb(136, 136, 136);border-right-color:rgb(136, 136, 136);border-top-color:rgb(136, 136, 136);color:rgb(136, 136, 136);cursor:pointer;height:auto;outline-color:rgb(136, 136, 136);overflow-x:visible;overflow-y:visible;pointer-events:none;text-decoration:none solid rgb(136, 136, 136);text-decoration-color:rgb(136, 136, 136);width:auto;column-rule-color:rgb(136, 136, 136);perspective-origin:0px 0px;-webkit-text-emphasis-color:rgb(136, 136, 136);-webkit-text-fill-color:rgb(136, 136, 136);-webkit-text-stroke-color:rgb(136, 136, 136);transform-origin:0px 0px;fill:rgb(136, 136, 136);caret-color:rgb(136, 136, 136);">
        
        <path d="M17.53 11.2c-.23-.3-.5-.56-.76-.82-.65-.6-1.4-1.03-2.03-1.66-1.46-1.46-1.78-3.87-.85-5.72-.9.23-1.75.75-2.45 1.32C8.9 6.4 7.9 10.07 9.1 13.22c.04.1.08.2.08.33 0 .22-.15.42-.35.5-.22.1-.46.04-.64-.12-.06-.05-.1-.1-.15-.17-1.1-1.43-1.28-3.48-.53-5.12C5.87 10 5 12.3 5.12 14.47c.04.5.1 1 .27 1.5.14.6.4 1.2.72 1.73 1.04 1.73 2.87 2.97 4.84 3.22 2.1.27 4.35-.12 5.96-1.6 1.8-1.66 2.45-4.3 1.5-6.6l-.13-.26c-.2-.45-.47-.87-.78-1.25zm-3.1 6.3c-.28.24-.73.5-1.08.6-1.1.38-2.2-.16-2.88-.82 1.2-.28 1.9-1.16 2.1-2.05.17-.8-.14-1.46-.27-2.23-.12-.74-.1-1.37.2-2.06.15.38.35.76.58 1.06.76 1 1.95 1.44 2.2 2.8.04.14.06.28.06.43.03.82-.32 1.72-.92 2.26z" class="style-scope yt-icon" style="border-bottom-color:rgb(136, 136, 136);border-left-color:rgb(136, 136, 136);border-right-color:rgb(136, 136, 136);border-top-color:rgb(136, 136, 136);color:rgb(136, 136, 136);cursor:pointer;height:auto;outline-color:rgb(136, 136, 136);overflow-x:visible;overflow-y:visible;pointer-events:none;text-decoration:none solid rgb(136, 136, 136);text-decoration-color:rgb(136, 136, 136);width:auto;column-rule-color:rgb(136, 136, 136);perspective-origin:0px 0px;-webkit-text-emphasis-color:rgb(136, 136, 136);-webkit-text-fill-color:rgb(136, 136, 136);-webkit-text-stroke-color:rgb(136, 136, 136);transform-origin:0px 0px;fill:rgb(136, 136, 136);d:path('M 17.53 11.2 c -0.23 -0.3 -0.5 -0.56 -0.76 -0.82 c -0.65 -0.6 -1.4 -1.03 -2.03 -1.66 c -1.46 -1.46 -1.78 -3.87 -0.85 -5.72 c -0.9 0.23 -1.75 0.75 -2.45 1.32 C 8.9 6.4 7.9 10.07 9.1 13.22 c 0.04 0.1 0.08 0.2 0.08 0.33 c 0 0.22 -0.15 0.42 -0.35 0.5 c -0.22 0.1 -0.46 0.04 -0.64 -0.12 c -0.06 -0.05 -0.1 -0.1 -0.15 -0.17 c -1.1 -1.43 -1.28 -3.48 -0.53 -5.12 C 5.87 10 5 12.3 5.12 14.47 c 0.04 0.5 0.1 1 0.27 1.5 c 0.14 0.6 0.4 1.2 0.72 1.73 c 1.04 1.73 2.87 2.97 4.84 3.22 c 2.1 0.27 4.35 -0.12 5.96 -1.6 c 1.8 -1.66 2.45 -4.3 1.5 -6.6 l -0.13 -0.26 c -0.2 -0.45 -0.47 -0.87 -0.78 -1.25 Z m -3.1 6.3 c -0.28 0.24 -0.73 0.5 -1.08 0.6 c -1.1 0.38 -2.2 -0.16 -2.88 -0.82 c 1.2 -0.28 1.9 -1.16 2.1 -2.05 c 0.17 -0.8 -0.14 -1.46 -0.27 -2.23 c -0.12 -0.74 -0.1 -1.37 0.2 -2.06 c 0.15 0.38 0.35 0.76 0.58 1.06 c 0.76 1 1.95 1.44 2.2 2.8 c 0.04 0.14 0.06 0.28 0.06 0.43 c 0.03 0.82 -0.32 1.72 -0.92 2.26 Z');caret-color:rgb(136, 136, 136);"/>
      </g></svg>